<svg xmlns="http://www.w3.org/2000/svg" fill="none" viewBox="0 0 704 704"><defs/><rect width="704" height="704" fill="#DFE1EF" rx="32"/><path fill="#EE202C" d="M605.536 470.542c-1.053-1.824-2.807-3.577-6.314-7.084-3.507-3.508-5.261-5.261-7.085-6.314-4.95-2.859-11.049-2.859-16 0-1.824 1.053-3.578 2.806-7.085 6.314L531.34 501.17l-37.713-37.712c-3.507-3.508-5.26-5.261-7.085-6.314-4.95-2.859-11.049-2.859-16 0-1.824 1.053-3.577 2.806-7.084 6.314-3.508 3.507-5.261 5.26-6.314 7.084-2.859 4.951-2.859 11.05 0 16 1.053 1.825 2.806 3.578 6.314 7.085l37.712 37.713-37.712 37.712c-3.508 3.507-5.261 5.261-6.314 7.085-2.859 4.951-2.859 11.05 0 16 1.053 1.824 2.806 3.578 6.314 7.085 3.507 3.507 5.26 5.261 7.084 6.314 4.951 2.858 11.05 2.858 16 0 1.825-1.053 3.578-2.807 7.085-6.314l37.713-37.712 37.712 37.712c3.507 3.507 5.261 5.261 7.085 6.314 4.95 2.858 11.05 2.858 16 0 1.824-1.053 3.578-2.807 7.085-6.314s5.261-5.261 6.314-7.085c2.858-4.95 2.858-11.049 0-16-1.053-1.824-2.807-3.578-6.314-7.085L561.51 531.34l37.712-37.713c3.507-3.507 5.261-5.26 6.314-7.085 2.858-4.95 2.858-11.049 0-16z"/><rect width="128" height="42.6667" x="96" y="565.333" fill="#2B3595" rx="4"/><rect width="256" height="85.3333" x="96" y="373.333" fill="#2B3595" rx="8"/><rect width="512" height="170.667" x="96" y="96" fill="#2B3595" rx="16"/></svg>