<svg xmlns="http://www.w3.org/2000/svg" fill="none" viewBox="0 0 176 40"><defs/><path fill="#2B3595" fill-rule="evenodd" d="M.871948 4.36808C0 6.07937 0 8.31958 0 12.8v14.4c0 4.4804 0 6.7206.871948 8.4319.766982 1.5053 1.990832 2.7292 3.496132 3.4962C6.07937 40 8.31958 40 12.8 40h14.4c4.4804 0 6.7206 0 8.4319-.8719 1.5053-.767 2.7292-1.9909 3.4962-3.4962C40 33.9206 40 31.6804 40 27.2V12.8c0-4.48042 0-6.72063-.8719-8.43192-.767-1.5053-1.9909-2.72915-3.4962-3.496132C33.9206 0 31.6804 0 27.2 0H12.8C8.31958 0 6.07937 0 4.36808.871948 2.86278 1.63893 1.63893 2.86278.871948 4.36808zM9 30c-.55228 0-1 .4477-1 1s.44772 1 1 1h4c.5523 0 1-.4477 1-1s-.4477-1-1-1H9zm-1-7c0-1.1046.89543-2 2-2h8c1.1046 0 2 .8954 2 2s-.8954 2-2 2h-8c-1.10457 0-2-.8954-2-2zm4-15c-2.20914 0-4 1.79086-4 4 0 2.2091 1.79086 4 4 4h16c2.2091 0 4-1.7909 4-4 0-2.20914-1.7909-4-4-4H12z" clip-rule="evenodd"/><path fill="#182952" d="M53.544 28V13.672h-4.896V11.2h12.888v2.472h-4.92V28h-3.072z"/><path fill="#182952" d="M62.8324 33.28l2.76-6.072h-.72l-4.632-11.112h3.336l3.336 8.376 3.48-8.376h3.264l-7.56 17.184h-3.264zM74.4647 33.28V16.096h2.736l.336 1.704c.384-.528.888-.992 1.512-1.392.64-.4 1.464-.6 2.472-.6 1.12 0 2.12.272 3 .816.88.544 1.576 1.288 2.088 2.232.512.944.768 2.016.768 3.216 0 1.2-.256 2.272-.768 3.216-.512.928-1.208 1.664-2.088 2.208-.88.528-1.88.792-3 .792-.896 0-1.68-.168-2.352-.504-.672-.336-1.216-.808-1.632-1.416v6.912h-3.072zm6.408-7.68c.976 0 1.784-.328 2.424-.984.64-.656.96-1.504.96-2.544s-.32-1.896-.96-2.568c-.64-.672-1.448-1.008-2.424-1.008-.992 0-1.808.336-2.448 1.008-.624.656-.936 1.504-.936 2.544s.312 1.896.936 2.568c.64.656 1.456.984 2.448.984zM94.7049 28.288c-1.2 0-2.264-.256-3.192-.768-.928-.512-1.656-1.232-2.184-2.16-.528-.928-.792-2-.792-3.216 0-1.232.256-2.328.768-3.288.528-.96 1.248-1.704 2.16-2.232.928-.544 2.016-.816 3.264-.816 1.168 0 2.2.256 3.096.768.896.512 1.592 1.216 2.088 2.112.5121.88.7681 1.864.7681 2.952 0 .176-.008.36-.024.552 0 .192-.008.392-.024.6h-9.0481c.064.928.384 1.656.96 2.184.592.528 1.304.792 2.136.792.624 0 1.144-.136 1.56-.408.432-.288.752-.656.96-1.104h3.1201c-.224.752-.6001 1.44-1.1281 2.064-.512.608-1.152 1.088-1.92 1.44-.752.352-1.608.528-2.568.528zm.024-9.984c-.752 0-1.416.216-1.992.648-.576.416-.944 1.056-1.104 1.92h5.928c-.048-.784-.336-1.408-.864-1.872-.528-.464-1.184-.696-1.968-.696zM107.897 28.288c-1.216 0-2.288-.264-3.216-.792-.928-.528-1.664-1.264-2.208-2.208-.528-.944-.792-2.024-.792-3.24 0-1.216.264-2.296.792-3.24.544-.944 1.28-1.68 2.208-2.208.928-.528 2-.792 3.216-.792 1.52 0 2.8.4 3.84 1.2 1.04.784 1.704 1.872 1.992 3.264h-3.24c-.16-.576-.48-1.024-.96-1.344-.464-.336-1.016-.504-1.656-.504-.848 0-1.568.32-2.16.96-.592.64-.888 1.528-.888 2.664 0 1.136.296 2.024.888 2.664.592.64 1.312.96 2.16.96.64 0 1.192-.16 1.656-.48.48-.32.8-.776.96-1.368h3.24c-.288 1.344-.952 2.424-1.992 3.24-1.04.816-2.32 1.224-3.84 1.224zM126.727 16.096V28h-2.712l-.24-2.016c-.368.704-.904 1.264-1.608 1.68-.688.416-1.504.624-2.448.624-1.472 0-2.616-.464-3.432-1.392-.816-.928-1.224-2.288-1.224-4.08v-6.72h3.072v6.432c0 1.024.208 1.808.624 2.352.416.544 1.064.816 1.944.816.864 0 1.568-.304 2.112-.912.56-.608.84-1.456.84-2.544v-6.144h3.072zM128.657 28V10.72h3.072V28h-3.072zM137.772 28.288c-1.024 0-1.864-.16-2.52-.48-.656-.336-1.144-.776-1.464-1.32-.32-.544-.48-1.144-.48-1.8 0-1.104.432-2 1.296-2.688.864-.688 2.16-1.032 3.888-1.032h3.024v-.288c0-.816-.232-1.416-.696-1.8-.464-.384-1.04-.576-1.728-.576-.624 0-1.168.152-1.632.456-.464.288-.752.72-.864 1.296h-3c.08-.864.368-1.616.864-2.256.512-.64 1.168-1.128 1.968-1.464.8-.352 1.696-.528 2.688-.528 1.696 0 3.032.424 4.008 1.272.976.848 1.464 2.048 1.464 3.6V28h-2.616l-.288-1.92c-.352.64-.848 1.168-1.488 1.584-.624.416-1.432.624-2.424.624zm.696-2.4c.88 0 1.56-.288 2.04-.864.496-.576.808-1.288.936-2.136h-2.616c-.816 0-1.4.152-1.752.456-.352.288-.528.648-.528 1.08 0 .464.176.824.528 1.08.352.256.816.384 1.392.384zM151.459 28c-1.248 0-2.248-.304-3-.912-.752-.608-1.128-1.688-1.128-3.24v-5.184h-2.04v-2.568h2.04l.36-3.192h2.712v3.192h3.216v2.568h-3.216v5.208c0 .576.12.976.36 1.2.256.208.688.312 1.296.312h1.488V28h-2.088zM160.464 28.288c-1.152 0-2.192-.264-3.12-.792-.912-.528-1.64-1.256-2.184-2.184-.528-.944-.792-2.032-.792-3.264 0-1.232.272-2.312.816-3.24.544-.944 1.272-1.68 2.184-2.208.928-.528 1.968-.792 3.12-.792 1.136 0 2.16.264 3.072.792.928.528 1.656 1.264 2.184 2.208.544.928.816 2.008.816 3.24 0 1.232-.272 2.32-.816 3.264-.528.928-1.256 1.656-2.184 2.184-.928.528-1.96.792-3.096.792zm0-2.664c.8 0 1.496-.296 2.088-.888.592-.608.888-1.504.888-2.688 0-1.184-.296-2.072-.888-2.664-.592-.608-1.28-.912-2.064-.912-.816 0-1.52.304-2.112.912-.576.592-.864 1.48-.864 2.664 0 1.184.288 2.08.864 2.688.592.592 1.288.888 2.088.888zM168.107 28V16.096h2.736l.288 2.232c.432-.768 1.016-1.376 1.752-1.824.752-.464 1.632-.696 2.64-.696v3.24h-.864c-.672 0-1.272.104-1.8.312-.528.208-.944.568-1.248 1.08-.288.512-.432 1.224-.432 2.136V28h-3.072z"/></svg>